<svg width="120" height="120" viewBox="0 0 120 120" fill="none"
    xmlns="http://www.w3.org/2000/svg">
    <g clip-path="url(#clip0_1_70)">
        <path d="M109.5 12.755C106.645 21.445 98.645 35 76.545 35C72.34 34.895 65.175 36.275 65 30C65.1049 27.3455 64.6593 24.698 63.6913 22.224C62.7233 19.75 61.2539 17.5032 59.3754 15.6247C57.4969 13.7462 55.25 12.2767 52.776 11.3087C50.302 10.3407 47.6545 9.89514 45 10C43.6739 10 42.4022 9.47322 41.4645 8.53553C40.5268 7.59785 40 6.32608 40 5C40 3.67392 40.5268 2.40215 41.4645 1.46447C42.4022 0.526784 43.6739 -5.88596e-07 45 -5.88596e-07C50.2684 -0.333505 55.5214 0.856377 60.1318 3.42756C64.7421 5.99874 68.5151 9.84255 71 14.5C73.6017 10.0725 77.3182 6.40394 81.7791 3.85986C86.24 1.31578 91.2897 -0.0150316 96.425 -5.88596e-07C104.285 -0.660001 112.2 3.915 109.5 12.755ZM109.695 31.755C100.545 42.415 83.83 46.175 68.5 44.9C69.4848 48.1766 69.99 51.5786 70 55C69.3577 68.2607 65.6471 81.1915 59.16 92.775C58.4247 93.879 57.2809 94.6456 55.9804 94.9063C54.6798 95.167 53.329 94.9003 52.225 94.165C51.121 93.4297 50.3544 92.2859 50.0937 90.9854C49.833 89.6848 50.0997 88.334 50.835 87.23C56.2037 77.2835 59.3318 66.2831 60 55C60 50.91 57.525 25 32.525 25C28.2382 24.936 23.9821 25.7328 20.0088 27.3431C16.0354 28.9534 12.4255 31.3445 9.39274 34.3749C6.36001 37.4053 3.9661 41.0134 2.35273 44.9856C0.739361 48.9577 -0.0606677 53.2131 5.49085e-06 57.5C5.49085e-06 97.94 39.635 120 60 120C80.365 120 120 97.94 120 57.5C120 47.9083 116.312 38.6837 109.7 31.735L109.695 31.755Z" fill="url(#paint0_linear_1_70)"/>
    </g>
    <defs>
        <linearGradient id="paint0_linear_1_70" x1="59.9984" y1="-0.0626526" x2="59.9984" y2="120" gradientUnits="userSpaceOnUse">
            <stop stop-color="#3FB247"/>
            <stop offset="1" stop-color="#EACF32"/>
        </linearGradient>
        <clipPath id="clip0_1_70">
            <rect width="120" height="120" fill="white"/>
        </clipPath>
    </defs>
</svg>
